# xmcd
#
# Track frame offsets:
#   150
#   17486
#   33972
#   62902
#   80619
#   111233
#   123413
#   130718
#   157668
#   173094
#   189620
#   216883
#   229243
#   241624
#
# Disc length: 3919 seconds
#
# Revision: 0
# Processed by: cddbd v1.5.1PL2 Copyright (c) Steve Scherf et al.
# Submitted via: uFREEDB ActiveX Control 1.5
#
DISCID=ae0f4d0e
DTITLE=Oswaldo Montenegro - Musical 1973
DYEAR=1900
DGENRE=Blues
TTITLE0=Léo e Bia
TTITLE1=Anjos e Demonios
TTITLE2=Por descuido ou displiciencia
TTITLE3=Coisas de Brasilia
TTITLE4=Goyarece Mulungo
TTITLE5=Pra Longe do Paranoa
TTITLE6=Ao nosso filho morena
TTITLE7=Celeiro
TTITLE8=Quem diria
TTITLE9=Som Molhado
TTITLE10=Fado Doido Chique
TTITLE11=Bia Sonhadora
TTITLE12=História Estranha
TTITLE13=Release
EXTD=
EXTT0=
EXTT1=
EXTT2=
EXTT3=
EXTT4=
EXTT5=
EXTT6=
EXTT7=
EXTT8=
EXTT9=
EXTT10=
EXTT11=
EXTT12=
EXTT13=
PLAYORDER=
